<?xml version="1.0" encoding="iso-8859-1"?>
<!-- Generator: Adobe Illustrator 19.0.0, SVG Export Plug-In . SVG Version: 6.00 Build 0)  -->
<svg version="1.1" id="Layer_1" xmlns="http://www.w3.org/2000/svg" xmlns:xlink="http://www.w3.org/1999/xlink" x="0px" y="0px"
	fill="#fff"  viewBox="0 0 512 512" style="enable-background:new 0 0 512 512;" xml:space="preserve">
<g>
	<g>
		<path d="M384,0H128C98.603,0,74.667,23.936,74.667,53.333v405.333C74.667,488.064,98.603,512,128,512h256
			c29.397,0,53.333-23.936,53.333-53.333V53.333C437.333,23.936,413.397,0,384,0z M416,458.667c0,17.643-14.357,32-32,32H128
			c-17.643,0-32-14.357-32-32V53.333c0-17.643,14.357-32,32-32h256c17.643,0,32,14.357,32,32V458.667z"/>
	</g>
</g>
<g>
	<g>
		<path d="M202.005,134.912l-32-85.333c-3.136-8.32-16.875-8.32-19.989,0l-32,85.333c-2.069,5.525,0.725,11.669,6.229,13.739
			c5.504,2.048,11.669-0.704,13.739-6.229L160,83.712l22.016,58.709c1.6,4.267,5.675,6.912,9.984,6.912
			c1.259,0,2.517-0.213,3.776-0.683C201.28,146.581,204.075,140.437,202.005,134.912z"/>
	</g>
</g>
<g>
	<g>
		<path d="M181.333,106.667h-42.667c-5.888,0-10.667,4.779-10.667,10.667S132.779,128,138.667,128h42.667
			c5.888,0,10.667-4.779,10.667-10.667S187.221,106.667,181.333,106.667z"/>
	</g>
</g>
<g>
	<g>
		<path d="M387.755,363.349c-5.504-2.069-11.669,0.704-13.739,6.229L352,428.288l-22.016-58.709
			c-2.069-5.504-8.235-8.277-13.739-6.229c-5.504,2.069-8.299,8.213-6.229,13.739l32,85.333c1.557,4.16,5.547,6.912,9.984,6.912
			c4.437,0,8.427-2.752,9.984-6.912l32-85.333C396.053,371.563,393.259,365.419,387.755,363.349z"/>
	</g>
</g>
<g>
	<g>
		<path d="M373.333,384h-42.667c-5.888,0-10.667,4.779-10.667,10.667s4.779,10.667,10.667,10.667h42.667
			c5.888,0,10.667-4.779,10.667-10.667S379.221,384,373.333,384z"/>
	</g>
</g>
<g>
	<g>
		<path d="M324.779,246.464c-16.853-8.427-58.112-53.909-58.112-86.464c0-5.888-4.779-10.667-10.667-10.667
			c-5.888,0-10.667,4.779-10.667,10.667c0,32.555-41.259,78.037-58.112,86.464c-3.605,1.813-5.888,5.504-5.888,9.536
			s2.283,7.723,5.888,9.536c16.853,8.427,58.112,53.909,58.112,86.464c0,5.888,4.779,10.667,10.667,10.667
			c5.888,0,10.667-4.779,10.667-10.667c0-32.555,41.259-78.037,58.112-86.464c3.605-1.813,5.888-5.504,5.888-9.536
			S328.384,248.277,324.779,246.464z M256,313.131c-11.605-23.104-30.507-44.587-45.483-57.131
			c14.976-12.544,33.877-34.027,45.483-57.131c11.605,23.104,30.507,44.587,45.483,57.131
			C286.507,268.544,267.605,290.027,256,313.131z"/>
	</g>
</g>
<g>
</g>
<g>
</g>
<g>
</g>
<g>
</g>
<g>
</g>
<g>
</g>
<g>
</g>
<g>
</g>
<g>
</g>
<g>
</g>
<g>
</g>
<g>
</g>
<g>
</g>
<g>
</g>
<g>
</g>
</svg>
